<?xml version="1.0" encoding="UTF-8"?>
<svg id="Layer_2" data-name="Layer 2" xmlns="http://www.w3.org/2000/svg" viewBox="0 0 900 374.77">
  <defs>
    <style>
      .cls-1 {
        font-family: SEEAMERICA, 'SEE AMERICA';
        font-size: 202.54px;
      }

      .cls-1, .cls-2 {
        fill: #231f20;
      }

      .cls-2 {
        stroke-width: 0px;
      }
    </style>
  </defs>
  <g id="Layer_1-2" data-name="Layer 1">
    <g>
      <g>
        <path class="cls-2" d="m650.15,64.36h-65.71l-32.73,58.68,32.73,58.66h65.71l32.73-58.66-32.73-58.68Zm-6.98,105.29h-51.74l-26-46.6,26-46.63h51.74l26,46.63-26,46.6Z"/>
        <path class="cls-2" d="m867.27,64.38h-65.71l-32.73,58.68,32.73,58.66h65.71l32.73-58.66-32.73-58.68Zm-6.98,105.29h-51.74l-26-46.6,26-46.63h51.74l26,46.63-26,46.6Z"/>
        <g>
          <path class="cls-2" d="m574.34,58.68L541.61,0h-65.71l-32.73,58.68,32.73,58.66h65.71l32.73-58.66Zm-39.71-46.63l26,46.63-26,46.6h-51.74l-26-46.6,26-46.63h51.74Z"/>
          <path class="cls-2" d="m791.44,58.68L758.71,0h-65.71l-32.73,58.68,32.73,58.66h65.71l32.73-58.66Zm-39.71-46.63l26,46.63-26,46.6h-51.74l-26-46.6,26-46.63h51.74Z"/>
          <g>
            <path class="cls-2" d="m791.44,187.39l-32.73-58.68h-65.71l-32.73,58.68,32.73,58.66h65.71l32.73-58.66Zm-39.71-46.63l26,46.63-26,46.6h-51.74l-26-46.6,26-46.63h51.74Z"/>
            <path class="cls-2" d="m791.44,316.11l-32.73-58.68h-65.71l-32.73,58.68,32.73,58.66h65.71l32.73-58.66Zm-39.71-46.63l26,46.63-26,46.6h-51.74l-26-46.6,26-46.63h51.74Z"/>
          </g>
        </g>
      </g>
      <text class="cls-1" transform="translate(0 311.65)"><tspan x="0" y="0">LINKHIVE</tspan></text>
    </g>
  </g>
</svg>